<?xml version="1.0" ?><!DOCTYPE svg  PUBLIC '-//W3C//DTD SVG 1.1//EN'  'http://www.w3.org/Graphics/SVG/1.1/DTD/svg11.dtd'><svg enable-background="new 0 0 57.625 56.125" height="56.125px" id="Layer_1" version="1.1" viewBox="0 0 57.625 56.125" width="57.625px" xml:space="preserve" xmlns="http://www.w3.org/2000/svg" xmlns:xlink="http://www.w3.org/1999/xlink"><path d="M6.688,0C3,0,0,3,0,6.688s3,6.688,6.688,6.688s6.688-3,6.688-6.688S10.375,0,6.688,0z M6.688,10.375  C4.654,10.375,3,8.721,3,6.688S4.654,3,6.688,3s3.688,1.654,3.688,3.688S8.721,10.375,6.688,10.375z"/><path d="M18.75,8.188h37.375c0.828,0,1.5-0.671,1.5-1.5s-0.672-1.5-1.5-1.5H18.75c-0.829,0-1.5,0.671-1.5,1.5  S17.921,8.188,18.75,8.188z"/><path d="M6.688,21.375C3,21.375,0,24.375,0,28.063s3,6.688,6.688,6.688s6.688-3,6.688-6.688S10.375,21.375,6.688,21.375z   M6.688,31.75C4.654,31.75,3,30.096,3,28.063s1.654-3.688,3.688-3.688s3.688,1.654,3.688,3.688S8.721,31.75,6.688,31.75z"/><path d="M56.125,26.563H18.75c-0.829,0-1.5,0.671-1.5,1.5s0.671,1.5,1.5,1.5h37.375c0.828,0,1.5-0.671,1.5-1.5  S56.953,26.563,56.125,26.563z"/><path d="M6.688,42.75C3,42.75,0,45.75,0,49.438s3,6.688,6.688,6.688s6.688-3,6.688-6.688S10.375,42.75,6.688,42.75z M6.688,53.125  C4.654,53.125,3,51.471,3,49.438s1.654-3.688,3.688-3.688s3.688,1.654,3.688,3.688S8.721,53.125,6.688,53.125z"/><path d="M56.125,47.938H18.75c-0.829,0-1.5,0.672-1.5,1.5s0.671,1.5,1.5,1.5h37.375c0.828,0,1.5-0.672,1.5-1.5  S56.953,47.938,56.125,47.938z"/></svg>